<?xml version="1.0" standalone="no"?>
<!DOCTYPE svg PUBLIC "-//W3C//DTD SVG 20010904//EN"
 "http://www.w3.org/TR/2001/REC-SVG-20010904/DTD/svg10.dtd">
<svg version="1.0" xmlns="http://www.w3.org/2000/svg"
 width="614.000000pt" height="212.000000pt" viewBox="0 0 614.000000 212.000000"
 preserveAspectRatio="xMidYMid meet">

<g transform="translate(0.000000,212.000000) scale(0.100000,-0.100000)"
fill="#000000" stroke="none">
<path d="M60 1050 l0 -970 701 2 701 3 92 180 c83 162 205 400 409 795 38 74
163 321 279 548 l209 412 -1195 0 -1196 0 0 -970z m981 564 c164 -27 294 -105
335 -202 10 -24 16 -69 16 -129 0 -75 -3 -100 -22 -137 -22 -46 -132 -156
-156 -156 -7 0 -14 -3 -16 -7 -6 -14 -114 -54 -167 -62 -28 -4 -53 -10 -56
-12 -7 -7 -9 -75 -7 -206 l2 -123 233 0 c129 0 236 -3 240 -6 7 -7 -42 -83
-65 -101 -21 -17 -577 -27 -583 -11 -3 7 -6 108 -8 223 l-2 210 -87 3 -88 3
-2 -223 -3 -223 -92 -3 -93 -3 0 220 0 220 -52 3 -53 3 0 60 0 60 52 3 53 3 2
297 3 297 210 5 c116 3 233 7 261 8 28 1 93 -5 145 -14z"/>
<path d="M614 1487 c-2 -7 -3 -114 -2 -237 l3 -225 67 -3 c110 -5 108 -8 108
173 l0 155 85 0 85 0 1 -102 c1 -103 7 -199 12 -205 2 -1 23 5 48 14 119 46
179 117 179 213 0 121 -76 192 -234 220 -89 15 -345 13 -352 -3z"/>
<path d="M2170 1050 l0 -240 60 0 60 0 0 69 0 69 121 4 121 3 29 33 c28 31 29
36 29 133 l0 101 -34 34 -34 34 -176 0 -176 0 0 -240z m288 138 c7 -7 12 -39
12 -74 0 -73 -1 -74 -106 -74 l-74 0 0 80 0 80 78 0 c47 0 83 -5 90 -12z"/>
<path d="M3460 1030 l0 -241 58 3 57 3 1 123 c1 67 4 125 7 128 3 3 24 -31 48
-75 l43 -81 47 0 47 0 49 83 48 82 3 -132 3 -133 59 0 60 0 0 240 0 240 -64 0
-64 0 -68 -126 c-55 -103 -70 -123 -79 -111 -6 9 -38 65 -71 126 l-59 111 -62
0 -63 0 0 -240z"/>
<path d="M2623 1158 c3 -7 35 -84 72 -171 36 -87 65 -168 63 -180 -2 -18 -11
-23 -48 -27 -48 -5 -57 -19 -46 -66 6 -22 11 -24 67 -24 74 0 113 19 138 68
16 33 151 395 151 407 0 3 -27 5 -59 5 l-59 0 -34 -107 c-18 -60 -38 -107 -43
-106 -5 1 -25 48 -45 105 l-37 103 -63 3 c-48 2 -61 0 -57 -10z"/>
<path d="M3081 1144 l-31 -26 0 -128 c0 -145 8 -165 71 -179 36 -8 154 -6 217
5 30 5 32 7 32 46 l0 41 -95 -5 c-69 -4 -98 -2 -105 7 -6 8 -10 47 -8 92 l3
78 103 3 102 3 0 44 0 45 -129 0 c-125 0 -131 -1 -160 -26z"/>
<path d="M4128 1153 c-37 -4 -38 -5 -38 -44 l0 -39 105 0 105 0 0 -25 c0 -25
-1 -25 -91 -25 -87 0 -92 -1 -120 -29 -26 -26 -29 -36 -29 -91 0 -51 4 -65 25
-85 20 -21 33 -25 87 -25 36 0 75 6 92 15 36 19 46 19 46 0 0 -12 13 -15 55
-15 l55 0 0 140 c0 150 -11 199 -48 219 -19 10 -161 12 -244 4z m170 -239 c3
-24 -19 -34 -81 -34 -42 0 -58 20 -37 46 10 11 28 14 64 12 43 -3 51 -6 54
-24z"/>
<path d="M4497 1150 c-12 -4 -14 -43 -12 -230 1 -124 2 -231 3 -237 1 -9 21
-13 57 -13 l55 0 0 60 0 60 79 0 c153 0 171 21 171 195 0 115 0 117 -29 146
-25 24 -37 29 -80 29 -28 0 -71 -7 -97 -16 -28 -10 -49 -12 -53 -6 -7 11 -73
20 -94 12z m237 -106 c12 -32 6 -141 -8 -153 -8 -7 -37 -11 -68 -9 l-53 3 -3
79 c-3 92 0 96 74 96 38 0 53 -4 58 -16z"/>
<path d="M5184 1149 c-12 -6 -36 -37 -55 -70 -28 -50 -37 -59 -61 -59 -28 0
-28 0 -28 65 l0 65 -60 0 -60 0 0 -180 0 -180 60 0 60 0 0 70 c0 70 0 70 28
70 24 0 33 -9 66 -70 l37 -70 60 0 c32 0 59 3 59 8 0 4 -21 43 -46 87 -43 75
-45 82 -35 116 12 40 26 55 56 61 16 3 20 11 20 48 l0 45 -40 2 c-22 1 -50 -3
-61 -8z"/>
<path d="M5383 1150 c-43 -18 -55 -61 -51 -192 3 -117 4 -120 31 -144 26 -22
36 -24 145 -24 156 0 162 2 162 52 l0 39 -107 -3 -108 -3 0 25 0 25 111 3
c106 2 112 4 118 25 17 66 -2 156 -41 187 -22 17 -39 20 -132 19 -58 0 -116
-4 -128 -9z m181 -86 c17 -45 9 -54 -54 -54 -59 0 -60 0 -60 28 0 38 5 42 61
42 33 0 49 -4 53 -16z"/>
<path d="M5737 1150 c-14 -6 -19 -35 -12 -67 5 -20 12 -23 60 -23 l55 0 0
-135 0 -136 58 3 57 3 2 130 1 130 54 5 53 5 3 42 3 42 -161 3 c-89 2 -166 1
-173 -2z"/>
</g>
</svg>
